<svg width="24" height="24" xmlns="http://www.w3.org/2000/svg">
 <defs>
  <linearGradient y2="Infinity" y1="Infinity" x2="Infinity" x1="Infinity" id="SVGID_1_">
   <stop stop-color="#FFFFFF" stop-opacity="0.1" offset="0"/>
   <stop stop-color="#FFFFFF" stop-opacity="0" offset="1"/>
  </linearGradient>
  <linearGradient y2="Infinity" y1="Infinity" x2="Infinity" x1="Infinity" id="SVGID_2_">
   <stop stop-color="#000000" stop-opacity="0" offset="0"/>
   <stop stop-color="#000000" stop-opacity="0.1" offset="1"/>
  </linearGradient>
  <linearGradient y2="Infinity" y1="Infinity" x2="Infinity" x1="Infinity" id="SVGID_3_">
   <stop stop-color="#000000" stop-opacity="0.1" offset="0"/>
   <stop stop-color="#000000" stop-opacity="0" offset="1"/>
  </linearGradient>
  <linearGradient y2="Infinity" y1="Infinity" x2="Infinity" x1="Infinity" id="SVGID_4_">
   <stop stop-color="#FFFFFF" stop-opacity="0.2" offset="0"/>
   <stop stop-color="#FFFFFF" stop-opacity="0" offset="1"/>
  </linearGradient>
 </defs>
 <g>
  <title>background</title>
  <rect fill="none" id="canvas_background" height="402" width="582" y="-1" x="-1"/>
 </g>
 <g>
  <title>Layer 1</title>
  <ellipse stroke="null" ry="11.951743" rx="11.968865" id="svg_34" cy="11.999999" cx="12" stroke-opacity="null" stroke-width="null" fill="#0092d1"/>
  <g stroke="null" id="svg_33">
   <polygon stroke="null" id="svg_2" points="20.434588134288788,9.984467804431915 4.016633927822113,9.984467804431915 12.225610435009003,14.825618088245392 " fill="url(#SVGID_1_)"/>
   <path stroke="null" id="svg_3" fill="#1565C0" d="m20.434588,9.984469l0,-0.16912c0,-0.579016 -0.260904,-1.114675 -0.715659,-1.46922c-0.639875,-0.498121 -5.956322,-4.730147 -6.490517,-5.203126c-0.593225,-0.524725 -1.412377,-0.524725 -2.005602,0c-1.257145,1.112846 -4.957163,4.009384 -6.490517,5.203126c-0.454755,0.354546 -0.715659,0.890204 -0.715659,1.46922l0,0.16912l8.208977,4.841147l8.208977,-4.841147z"/>
   <path stroke="null" id="svg_4" fill="#29B6F6" d="m4.016634,9.984469l0,7.682752c0,0.652666 0.42374,1.202623 1.008316,1.404952l7.200661,-4.246556l-8.208977,-4.841147z"/>
   <path stroke="null" id="svg_5" fill="#81D4FA" d="m5.02495,19.072172c0.15268,0.052836 0.313829,0.08759 0.484225,0.08759l13.432872,0c0.822793,0 1.492541,-0.669382 1.492541,-1.492541l0,-7.682752l-15.409638,9.087703z"/>
   <polygon stroke="null" id="svg_6" points="12.225610435009003,14.825618088245392 4.016633927822113,9.984467804431915 4.016633927822113,10.17103511095047 12.067419707775116,14.91890174150467 " opacity="0.2" fill="#FFFFFF"/>
   <path stroke="null" id="svg_7" opacity="0.2" fill="#FFFFFF" d="m5.02495,19.072172c0.070321,0.024321 15.409638,-8.901136 15.409638,-8.901136l0,-0.186568l-15.409638,9.087703z"/>
   <path stroke="null" id="svg_8" opacity="0.2" fill="#FFFFFF" d="m19.71893,8.346129c-0.639875,-0.498121 -5.956322,-4.730147 -6.490517,-5.203126c-0.593225,-0.524725 -1.412377,-0.524725 -2.005602,0c-1.257145,1.112846 -4.957163,4.009384 -6.490517,5.203126c-0.454755,0.354546 -0.715659,0.890204 -0.715659,1.46922l0,0.16912l0.001866,0.00109c0.00497,-0.572546 0.263411,-1.101727 0.713793,-1.452862c1.533355,-1.193742 5.233372,-4.09028 6.490517,-5.203126c0.593225,-0.524725 1.412377,-0.524725 2.005602,0c0.534195,0.472979 5.850643,4.705005 6.490517,5.203126c0.450382,0.351135 0.708823,0.880316 0.713793,1.452862l0.001866,-0.00109l0,-0.16912c0,-0.579016 -0.260904,-1.114675 -0.715659,-1.46922z"/>
   <path stroke="null" id="svg_9" fill="url(#SVGID_2_)" d="m19.71893,8.346129c-0.639875,-0.498121 -5.956322,-4.730147 -6.490517,-5.203126c-0.296538,-0.262299 -0.649532,-0.401128 -1.00254,-0.401195c-0.35318,-0.000067 -0.706375,0.138769 -1.003062,0.401195c-1.257145,1.112846 -4.957163,4.009384 -6.490517,5.203126c-0.454755,0.354546 -0.715659,0.890204 -0.715659,1.46922l0,0.16912l0.001866,0.00109l16.414223,0l0.001866,-0.00109l0,-0.16912c0,-0.579016 -0.260904,-1.114675 -0.715659,-1.46922z"/>
   <polygon stroke="null" id="svg_10" points="16.921869933605194,4.189164459705353 12.225610435009003,8.885423004627228 10.514435470104218,7.174247562885284 9.195344626903534,8.493338882923126 12.225610435009003,11.523606598377228 18.240961730480194,5.508256256580353 " fill="#F2F2F2"/>
   <polygon stroke="null" id="svg_11" points="12.225610435009003,9.071990311145782 16.921869933605194,4.375732243061066 18.1476771235466,5.60153990983963 18.240961730480194,5.508256256580353 16.921869933605194,4.189164459705353 12.225610435009003,8.885423004627228 10.514435470104218,7.174247562885284 9.195344626903534,8.493338882923126 9.288628280162811,8.58662348985672 10.514435470104218,7.360814869403839 " opacity="0.2" fill="#FFFFFF"/>
   <polygon stroke="null" id="svg_12" points="12.225610435009003,11.33703738451004 9.195344626903534,8.493338882923126 12.225610435009003,11.523606598377228 18.240961730480194,5.508256256580353 " opacity="0.1"/>
   <path stroke="null" id="svg_13" opacity="0.1" d="m18.942047,18.973195l-13.432872,0c-0.822793,0 -1.492541,-0.669382 -1.492541,-1.492541l0,0.186568c0,0.823159 0.669748,1.492541 1.492541,1.492541l13.432872,0c0.822793,0 1.492541,-0.669382 1.492541,-1.492541l0,-0.186568c0,0.823159 -0.669748,1.492541 -1.492541,1.492541z"/>
   <path stroke="null" id="svg_14" fill="url(#SVGID_3_)" d="m20.434588,9.815349c0,-0.579016 -0.260904,-1.114675 -0.715659,-1.46922c-0.255717,-0.199053 -1.260518,-0.996294 -2.406163,-1.909677l-5.087155,5.087155l2.077065,2.077065l6.131912,-3.616204l0,-0.16912z"/>
   <path stroke="null" id="svg_15" fill="url(#SVGID_4_)" d="m19.71893,8.346129c-0.255717,-0.199053 -1.260518,-0.996294 -2.406163,-1.909677l0.928197,-0.928197l-1.319093,-1.319093l-1.075727,1.075727c-1.2571,-1.006443 -2.386342,-1.917013 -2.617731,-2.121886c-0.296523,-0.262314 -0.649524,-0.40115 -1.002525,-0.401195c-0.353188,-0.00009 -0.706375,0.138739 -1.003077,0.401195c-1.257145,1.112846 -4.957163,4.009384 -6.490517,5.203126c-0.454755,0.354546 -0.715659,0.890204 -0.715659,1.46922l0,7.851872c0,0.823159 0.669748,1.492541 1.492541,1.492541l13.432872,0c0.822793,0 1.492541,-0.669382 1.492541,-1.492541l0,-7.851872c0,-0.579016 -0.260904,-1.114675 -0.715659,-1.46922z"/>
   <ellipse stroke="#000" id="svg_32" cy="10.158532" cx="13.874008" stroke-width="1.5" fill="#fff"/>
  </g>
 </g>
</svg>